<?xml version="1.0" encoding="UTF-8" standalone="no"?>
<!DOCTYPE svg  PUBLIC '-//W3C//DTD SVG 1.1//EN'  'http://www.w3.org/Graphics/SVG/1.1/DTD/svg11.dtd'>
<svg id="vector" xmlns="http://www.w3.org/2000/svg" xml:space="preserve" height="817.18px" viewBox="0 0 2000 817.175" width="2e3px" version="1.1" y="0px" x="0px" xmlns:xlink="http://www.w3.org/1999/xlink" enable-background="new 0 0 2000 817.175">
<g clip-rule="evenodd" fill-rule="evenodd">
	<path fill="#E5E4E4" d="m994.69 782.31c534.08 0 969.69-11.912 969.69-26.52 0-14.604-435.6-26.515-969.69-26.515-534.11-0.01-969.71 11.9-969.71 26.51s435.6 26.52 969.69 26.52z"/>
		<path fill="#000002" d="m1833.2 311.56l-32.569-21.308c-12.548-8.21-25.802-15.606-40.741-18.224-9.677-1.693-19.483-1.351-29.219-0.42-13.884 1.326-27.883 3.693-41.683 5.766-118.53 17.801-227.06 34.618-345.59 52.42-3.012 0.446-5.92-0.607-7.797-3.032-3.947-5.104-1.257-12.666 5.328-13.644l349.81-53.055c14.118-2.124 28.498-4.462 42.727-5.62 10.575-0.858 21.081-0.952 31.537 1.097 16.424 3.222 30.984 11.533 44.838 20.6l39.334 25.731c-4.5 1.99-10 5.01-15.8 9.67z"/>
		<path fill="#C7B693" d="m1836.8 308.86l-33.833-22.135c-40.06-26.209-56.538-22.23-114.58-13.521-118.53 17.8-227.06 34.614-345.58 52.418-5.47 0.813-6.717-7.516-1.221-8.331l349.81-53.057c0.006 0 0-0.002 0-0.002 59.633-8.973 75.262-11.326 116.16 15.434l37.178 24.324c-2.6 1.32-5.3 2.92-8 4.88z"/>
		<path fill="#000002" d="m1841.6 321.32c10.254-4.288 16.721 11.306 6.511 15.54l-501.87 200.08c-10.32 4.279-16.696-11.315-6.512-15.537l501.9-200.08z"/>
		<path fill="#C7B693" d="m1843.2 325.21c5.121-2.143 8.353 5.647 3.247 7.758l-501.86 200.08c-5.153 2.136-8.338-5.649-3.247-7.758l501.9-200.08z"/>
	<path fill="#000002" d="m120.88 751.98c-13.282 0-27.651-2.533-39.566-8.597-9.089-4.624-18.319-12.298-19.913-22.977-0.154-1.03-0.231-2.074-0.231-3.114v-581.35c0-1.039 0.077-2.084 0.231-3.113 1.594-10.679 10.824-18.353 19.913-22.978 11.915-6.063 26.284-8.597 39.566-8.597h1251.1c13.28 0 27.65 2.533 39.566 8.597 9.086 4.625 18.317 12.299 19.912 22.978 0.153 1.029 0.229 2.074 0.229 3.113v581.35c0 1.04-0.076 2.084-0.229 3.114-1.595 10.679-10.826 18.353-19.912 22.977-11.916 6.063-26.286 8.597-39.566 8.597h-1251.1-0.02zm1207.8-444.23c-8.824 0-15.979 7.155-15.979 15.982 0 8.824 7.154 15.979 15.979 15.979s15.982-7.155 15.982-15.979c0-8.82-7.2-15.98-16-15.98zm0 212.37c-8.824 0-15.979 7.155-15.979 15.979 0 8.827 7.154 15.981 15.979 15.981s15.982-7.154 15.982-15.981c0-8.82-7.2-15.98-16-15.98z"/>
	<path fill="#F7F8F6" d="m120.88 743.54h1251.1c11.925 0 25.028-2.229 35.738-7.679 6.418-3.266 14.252-9.023 15.397-16.703 0.091-0.619 0.138-1.244 0.138-1.869v-581.35c0-0.625-0.047-1.25-0.138-1.869-1.146-7.679-8.979-13.437-15.397-16.703-10.71-5.449-23.813-7.679-35.738-7.679h-1251.1c-11.928 0-25.032 2.229-35.74 7.679-6.417 3.267-14.25 9.024-15.396 16.703-0.092 0.619-0.138 1.244-0.138 1.869v581.35c0 0.625 0.046 1.25 0.138 1.869 1.146 7.68 8.979 13.438 15.396 16.703 10.69 5.45 23.8 7.68 35.72 7.68zm1207.8-444.22c13.481 0 24.42 10.938 24.42 24.419 0 13.48-10.938 24.416-24.42 24.416-13.48 0-24.416-10.936-24.416-24.416 0-13.49 10.9-24.42 24.4-24.42zm0 212.37c13.481 0 24.42 10.936 24.42 24.417 0 13.48-10.938 24.419-24.42 24.419-13.48 0-24.416-10.938-24.416-24.419 0-13.49 10.9-24.42 24.4-24.42z"/>
	<path fill="#000002" d="m1812.8 264.69l-14.113 10.768-46.447-45.633c9.412-5.192 16.065-9.54 24.384-17.93-10.821-19.293-21.742-40.258-16.012-62.04 9.706-36.904 54.756-61.735 91.493-55.703 48.396 7.945 67.686 49.357 54.168 92.712-4.995 16.012-5.509 20.923-7.202 38.137l-11.753 3.674c-4.575 10.105-4.059 17.271-2 27.374-9.18 3.06-14.868 2.546-25.245-0.57-12.607 11.57-10.415 24.369-9.596 25.222 1.901 1.982-12.041 6.256-16.169 7.35-8.5-7.13-14-15.4-21.6-23.36z"/>
	<path fill="#F6EACC" d="m1903.7 185.58c4.131-14.448 5.264-28.712 1.378-42.659-7.076-25.39-27.382-40.303-53.628-44.613-40.242-6.607-88.223 25.524-88.413 65.254-0.074 14.987 7.511 31.206 17.075 47.946-6.154 6.39-13.374 13.138-21.308 18.821 13.496 13.259 26.991 26.515 40.485 39.773 4.498-2.839 8.997-5.681 13.495-8.523 6.817 7.178 14.249 14.763 22.6 21.827 3.348-0.882 9.046-3.341 11.323-5.106 2.039-9.409 3.624-17.774 11.891-27.729 6.393 2.131 15.979 4.62 22.374 2.489-0.474-9.237 0.472-18.469 2.842-27.703 3.785-1.186 7.575-2.367 11.362-3.551 1.1-12.61 4.3-24.57 8.4-36.23z"/>
	<path fill="#000002" d="m1810.9 263.27c-4.625-5.125-17.188-21.621-18.073-27.557-0.313-4.353 0.656-8.856 1.454-14.878 0.351 4.831 0.698 9.666 1.049 14.495 1.425 6.024 12.724 21.014 17.446 26.248-0.6 0.58-1.2 1.14-1.8 1.7z"/>
	<path fill="#000002" d="m1844.5 180.57l31.621 42.998c-31.4 11.51-55.1-13.86-31.6-43z"/>
	<path fill="#fff" d="m1872.7 221.99c-9.391-11.575-18.777-23.147-28.167-34.722-13.1 16.2 1.2 44.58 28.2 34.72z"/>
	<polygon points="1878.5 214.35 1856.4 175.64 1871 171.03 1884.5 211.16" fill="#000002"/>
	<path fill="#000002" d="m1758.3 211.55c-4.409 2.638-19.038 8.437-24.381 10.674 10.201-10.992 23.485-15.747 24.804-34.69-10.081 1.1-17.189 10.111-26.542 25.02 3.639-11.711 6.785-24.962 13.298-34.729-4.357-0.507-8.721-1.015-13.078-1.521 15.582-7.097 22.332-11.113 27.208-23.108 0.901-12.024 0.389-25.29 1.292-37.319 3.402 2.918 6.807 5.839 10.212 8.755 12.088-17.676 24.174-35.352 36.263-53.03 1.181 6.938 2.36 13.874 3.543 20.814 12.587-7.735 24.855-15.138 38.058-23.476 0.869 5.452 1.74 10.903 2.615 16.354 0.637 0.04 10.041-2.597 15.105-9.231-0.813 6.603 0.852 12.499 1.632 13.79 18.023-6.348 21.991-16.049 34.547-34.32-3.528 7.354-6.837 21.965-6.144 29.952 9.83-7.002 20.768-8.839 32.123-10.115-10.884 7.234-18.936 17.14-15.924 23.675 13.309 3.106 24.829-4.889 37.221-13.586-3.278 8.291-6.483 17.944-11.871 24.683 7.477 0.435 12.74 5.979 20.486 9.965-13.84-3.687-21.175-2.575-27.758 4.817 10.864 4.346 33.584-0.25 44.014-4.914-8.444 6.98-24.572 9.388-42.848 34.162 12.406-2.674 25.436 0.477 35.742 5.681-23.231 0.563-38.613 5.218-49.443 16.844 20.086 11.262 24.805 39.537 30.841 58.347-7.921-11.428-19.765-50.465-46.916-45.655-3.439-16.034-8.519-38.485-21.834-49.341-25.757-20.997-54.551 4.35-39.841 27.164-23.867-2.717-24.846 10.829-21.416 40.433-3.874 4.19-16.653 6.543-18.098 0.185-1.27-5.587-0.302-22.559-0.633-28.169-6.545 21.7-22.549 45.653-45.326 45.66-3.486 0-6.97 0-10.456 0.003 5.9-2.57 12.3-7.04 13.5-13.76z"/>
	<path fill="#95C93D" d="m1766.5 194.62c0.319 10.994-0.753 16.308-11.298 26.478 30.147-0.01 38.692-30.263 49.363-57.533-3.311 14.563-3.311 29.122 0 43.682 3.911 2.489 7.343 2.134 10.301-1.063-1.481-13.995-1.21-26.233 3.496-34.038 3.22-5.338 8.519-8.603 16.748-8.934-2.071-7.041-2.013-13.258 0.178-18.644 7.805-19.201 31.737-17.453 45.769-6.017 11.809 9.629 18.261 26.833 22.594 47.032 18.816 0.688 22.269 6.622 41.907 39.065-15.592-34.109-16.592-42.3-36.579-46.166 14.617-11.602 30.127-19.651 47.586-19.889-7.622-1.585-14.521-3.656-33.737 2.486 6.978-13.152 17.989-25.557 40.132-35.867-12.194 5.446-25.807 6.155-40.843 2.131 5.743-6.572 12.965-11.071 23.441-11.012-6.632-3.371-14.563-2.188-23.083 1.066 11.737-6.15 15.992-13.968 19.177-22.017-8.585 5.091-18.646 8.405-31.964 7.813-3.637-7.578 2.528-14.325 7.459-20.955-11.197 1.265-18.328 6.2-23.086 11.01-3.688-11.015-0.719-19.538 3.197-27.703-8.7 15.688-18.878 26.938-32.316 28.414 0.355-5.326 0.708-10.654 1.063-15.979-5.8 5.207-11.602 10.414-17.401 15.626-0.945-5.921-1.892-11.841-2.84-17.76-12.668 7.814-25.332 15.627-38.001 23.441-0.948-5.565-1.894-11.128-2.839-16.693-11.012 16.101-22.02 32.198-33.028 48.3-2.486-2.131-4.973-4.265-7.459-6.393-0.709 9.469-1.42 18.939-2.131 28.408-2.814 7.281-7.849 14.267-17.757 20.6 6.392 0.763 11.482-1.721 15.981-5.682-9.419 7.242-15.189 16.446-18.466 26.989 6.743-7.696 13.858-13.005 22.017-11.718-1.953 10.118-6.212 19.471-13.849 27.697 7.2-3.1 11.3-5.33 16.1-16.2z"/>
	<path fill="#000002" d="m1741.5 116.54c-6.222 4.23-13.076 6.208-21.147 7.506-1.572 0.252-0.968 0.334-2.417-0.322l-24.97-11.447c8.475-29.683 24.701-64.049 54.934-76.55l1.316-0.312c38.736-2.728 66.854 4.842 99.434 25.343l-28.952 64.042-76.402 0.383-1.7-8.64z"/>
	<path fill="#ED1C24" d="m1746.7 120.95c-1.002-4.514-1.713-8.743-1.774-12.785-7.811 8.066-16.451 10.309-25.215 11.718-7.814-3.55-15.626-7.099-23.436-10.653 12.306-43.176 39.226-63.798 53.268-69.604 41.898-2.953 70.572 7.32 94.467 22.372-8.997 19.535-17.994 39.067-26.991 58.6-23.5 0.12-47 0.23-70.4 0.35z"/>
	<path fill="#000002" d="m1743.6 117c43.9-2.948 76.761-14.514 98.278-59.733 20.272 4.076 30.174 10.572 38.321 30.161-28.579 46.374-69.094 78.481-124.71 75.444-11.5-13.41-19.4-28.05-11.9-45.87z"/>
	<path fill="#FFFEF2" d="m1757.4 158.6c52.961-1.466 91.939-26.235 119.33-70.317-6.362-15.298-17.784-23.291-32.671-26.28-20.125 35.277-52.561 54.928-97.31 58.953-4 12.07-0.5 24.61 10.7 37.64z"/>
	<path fill="#000002" d="m1741.5 116.54c-0.265-4.416-2.202-28.329 13.716-40.318-7.008 9.883-10.588 20.801-10.289 32.974l-3.4 7.34z"/>
	<path fill="#000002" d="m1705.3 146.52c14.365 0 26.084-11.718 26.084-26.083s-11.719-26.08-26.084-26.08c-14.364 0-26.08 11.715-26.08 26.08s11.7 26.08 26.1 26.08z"/>
	<path fill="#FFFEF2" d="m1706 142.61c12.422 0 22.552-10.131 22.552-22.552 0-12.422-10.13-22.553-22.552-22.553-12.419 0-22.55 10.131-22.55 22.553 0.1 12.42 10.2 22.55 22.6 22.55z"/>
	<path fill="#000002" d="m1780.7 192.91c-4.978-3.937-11.375-7.896-12.569-14.372-5.402-29.273 29.167-42.238 36.465-14.973-4.204 16.432-7.157 27.962-11.362 44.393-5.864 1.011-11.197 6.486-15.57 1.386-3.6-4.27 0.7-11.53 3.1-16.44z"/>
	<path fill="#F6EACC" d="m1793.8 207.96c-11.437 1.976-18.59-0.185-10.123-15.271-6.896-4.528-10.375-9.543-11.365-14.913-1.577-8.558 3.877-24.715 14.375-24.967 5.267-0.126 9.353 3.911 15.997 10.936-1.274 5.306-1.763 10.609-2.087 15.915-0.7 15.32-2.4 22.25-6.8 28.3z"/>
	<path fill="#000002" d="m1791.8 192.03c-6.722-8.267-6.922-14.676 4.508-14.742-2.2-23.353-17.621-12.607-15.997-4.691-4.78-12.563 17.488-21.849 18.676 7.281-13.6-3.83-8.6 6.02-7.2 12.15z"/>
	<path fill="#000002" d="m1527.2 691.02c31.468-9.642 59.541 1.074 89.352-8.044l1.492-0.178c41.225 2.479 88.201 29.458 82.796 74.004l-0.452 3.709h-181.81c-6.664-18.829-8.082-53.26 6.852-68.42l1.7-1.07z"/>
	<path fill="#B1B1B1" d="m1529.8 695.04c-8.93 9.071-13.986 41.137-6.871 61.245h173.66c4.637-38.209-34.48-66.603-78.864-69.289-30.9 9.51-56.8-1.45-87.9 8.05z"/>
	<path fill="#F1F1F1" d="m1643 756.29h53.633c3.123-25.716-13.577-46.981-38.356-58.961-12 4.24-20.2 16.79-15.2 58.96z"/>
	<path fill="#fff" d="m1520.1 743.15c0.516 4.672 1.449 9.144 2.866 13.144h173.66c0.071-0.588 0.131-1.168 0.18-1.751l0.01-0.079c0.047-0.548 0.084-1.096 0.114-1.645l0.007-0.165c0.024-0.499 0.042-0.998 0.05-1.491l0.007-0.371c0.005-0.437 0.005-0.869 0-1.299l-0.01-0.508c-0.01-0.375-0.022-0.751-0.039-1.124l-0.042-0.721c-0.018-0.286-0.037-0.575-0.063-0.861-0.026-0.363-0.061-0.722-0.098-1.082l-0.006-0.052-0.02-0.202-0.024-0.2-0.003-0.015c-0.041-0.396-0.091-0.788-0.146-1.178l-0.026-0.2-0.03-0.2h-176.4z"/>
	<path fill="#000002" d="m1664.3 536.72c0.6-1.869 1.194-3.741 1.792-5.613-30.709-55.22-45.134-116.15-18.965-173.87l93.708 47.998c3.59 55.531 8.089 111.1-0.099 166.48l-0.842 1.973c-2.257 2.905-16.417 21.599-17.768 22.564-12.335 8.812-25.209 20.461-31.436 34.594-5.63 12.777-7.444 44.274-4.312 57.911 2.405 10.461-12.876 9.782-17.663 14.468-27.342-17.031-34.9-12.684-43.709-8.789-23.76 10.503-57.119 47.321-73.36 34.631-7.75-6.057-17.38-22.654-24.394-31.185-2.121 4.013-3.875 10.346-5.25 14.724-9.096-11.904-7.965-11.267-16.023-24.311-8.948-14.483-14.763-18.066-2.729-33.65 12.322-15.963 38.82-26.021 55.724-36.35 17.007-10.392-6.462-26.28-1.667-39.872 6-17.07 80.3-19.76 107-41.7z"/>
	<path fill="#ED1C24" d="m1649.4 363.15c-19.436 52.045-12.354 107.87 21.246 167.5-0.948 2.968-1.894 5.938-2.842 8.903-25.902 15.189-48.116 20.779-93.339 33.13-26.522 7.244 9.982 33.682-15.439 49.215-18.362 11.222-38.055 18.936-49.617 33.91-10.775 13.957-7.953 17.182 0.141 30.275 4.365 7.066 6.548 11.878 10.849 17.502 1.721-5.474 3.943-9.893 6.474-12.466 10.227 10.677 19.044 28.138 27.35 34.626 12.889 10.071 44.531-29.395 68.205-38.34 9.229-3.488 25.006-6.303 47.232 10.659 5.94-5.81 13.942-2.474 12.592-8.357-3.464-15.081-1.225-47.428 4.561-60.558 5.437-12.336 16.225-24.451 32.844-36.325 5.629-7.241 11.258-14.48 16.888-21.723 8.044-54.399 3.771-108.8 0.222-163.2-29.1-14.92-58.2-29.83-87.3-44.75z"/>
	<path fill="#000002" d="m1527.4 698.16c-3.059-3.805-4.602-8.35-11.668-16.747 4.178 2.632 7.987 5.852 11.088 9.708l0.6 7.04z"/>
	<polygon points="1703.7 581.52 1708.5 552.94 1711.2 580.88" fill="#000002"/>
		<path fill="#000002" d="m1786.9 684.02c7.687-6.444 76.049-63.509 78.165-64.259 39.675-14.066 99.006-7.175 106.13 39.436l-168.66 71.453c-9.197-12.146-19.973-28.045-17.076-44.144 0.4-1.88 0-1.27 1.5-2.49z"/>
		<path fill="#B1B1B1" d="m1791.9 686.28c-1.879 10.417 2.892 23.159 14.303 38.233 53.302-22.58 106.6-45.161 159.91-67.74-10.634-36.991-57.73-47.88-99.643-33.039-24.9 20.85-49.7 41.7-74.6 62.55z"/>
		<path fill="#F1F1F1" d="m1916.7 677.69l49.383-20.917c-7.157-24.896-30.828-37.967-58.32-39.33-9.4 8.6-12.2 23.38 8.9 60.25z"/>
		<path fill="#fff" d="m1798.8 713.4c2.05 3.551 4.533 7.256 7.454 11.113 53.302-22.58 106.6-45.161 159.91-67.74-1.261-4.388-3.036-8.397-5.254-12.047l-162.1 68.68z"/>
		<path fill="#000002" d="m1800.2 496.46c-39.371-11.933-91.818-30.557-123.83-57.242-26.162-21.804-38.211-48.596-33.08-82.009l144.98 21.673c33.605 29.636 65.777 60.528 95.759 93.902l0.95 1.783 10.402 39.736c-0.086 0.758-14.11 18.241-10.385 40.613 2.139 12.834 9.407 26.826 19.637 35.473 19.69 16.641 8.891 12.098 1.721 26.991-12.084 0.186-23.671 1.892-35.142 5.822-8.976 10.735-18.257 26.421-25.757 38.19-3.911 6.141-7.158 12.257-10.523 18.682-4.771 9.104-8.054 13.438-19.078 13.241-16.115-0.292-47.843-1.751-62.894-6.894-13.417-4.59 2.737-24.557 7.522-30.939 2.19-2.919 9.512-12.242 9.973-15.609 1.316-9.609-22.12-12.158-18.251-27.611 2.743-10.95 29.665-25.797 32.789-33.206 4.708-11.173-10.876-18.661-3.136-33.398 4.377-8.325 10.661-18.152 14.59-26.695 2.375-5.158 4.441-10.388 6.306-15.74-0.7-2.05-1.7-4.66-2.5-6.74z"/>
		<path fill="#ED1C24" d="m1649.9 363.76c-6.687 43.423 12.078 86.695 153.46 129.24 0.37 0.871 3.523 9.222 3.892 10.096-5.615 16.491-10.435 24.871-19.975 43.028-6.745 12.834 7.229 21.201 1.6 34.559-3.607 8.563-27.056 22.194-29.314 31.209-3.16 12.634 16.839 15.639 15.073 28.542-1.378 10.034-30.083 35.524-18.251 39.568 10.459 3.575 28.676 5.22 42.771 7.252 33.354 4.807 23.707 1.738 42.741-28.137 7.926-12.441 16.933-27.881 26.833-39.529 11.551-4.089 23.488-6.22 34.952-6.393 4.343-9.012 15.271-6.244-3.066-21.745-11.405-9.637-16.089-23.676-18.286-36.872-2.185-13.136-0.059-27.281 7.738-42.739-3.06-12.081-6.121-24.165-9.18-36.245-25.197-28.049-57.766-59.08-95.377-92.152-45.1-6.56-90.3-13.12-135.5-19.69z"/>
		<path fill="#000002" d="m1868.7 619.6c7.412-9.743 16.965-16.938 28.658-20.765-15.164 10.587-21.673 18.446-26.179 24.369l-2.5-3.61z"/>
		<polygon points="1872.1 509.54 1849.3 496.26 1872.3 502.29" fill="#000002"/>
	<path fill="#000002" d="m1645.9 331.34c-6.346-9.194-20.768-16.707-5.223-22.317 6.383-2.306 35.628-8.548 42.554-19.658 10.21-16.382 11.355-25.471 24.362-38.308 9.659-9.53 37.557-30.823 51.998-26.559 12.978 3.832 26.786 15.933 35.623 26.004 21.972 25.041 25.007 57.906 17.38 89.191-4.73 19.404 21.028 13.07 26.831 36.457 6.498 26.207 29.083 36.881 23.532 43.848-2.521 3.163-13.252 5.966-28.434 8.192l-15.982-15.017c-45.203 1.869-111.71 50.146-123.52 28.841-14.443-26.056-16.012-53.444-46.171-77.96-4.074 7.417-6.284 12.43-9.054 20.244-8.94-19.017-4.696-6.726-16.686-25.809-4.813-7.662-9.312-18.645 3.348-20.822 8.3-1.4 13.4-1.42 19.5-6.31z"/>
	<path fill="#ED1C24" d="m1836.6 378.45c-5.792-23.359-34.095-18.273-28.061-39.806 8.595-37.152 2.558-64.896-15.402-85.365-7.604-8.668-22.023-20.988-34.712-24.739-10.015-2.955-34.258 12.115-47.837 25.518-12.541 12.372-18.609 29.211-29.189 44.457-2.199 3.171-12.469 6.903-19.802 8.889-33.122 8.966-20.056 8.978-10.74 25.206-7.624 7.307-12.821 7.349-23.648 9.213-13.71 2.357 4.743 14.572 13.59 33.394 0.923-5.856 2.357-13.654 4.795-20.155 2.273 2.082 6.753 6.484 8.807 8.593 18.947 19.416 28.979 39.788 35.799 54.889 16.663 36.925 9.979 26.737 46.331 15.543 21.377-6.583 58.472-26.975 83.758-27.185 5.104 6.42 10.69 10.435 16.76 16.661 43.7-6.41 7.5-12.34-0.6-45.11z"/>
	<path fill="#000002" d="m1328.7 515.91c11.156 0 20.199 9.043 20.199 20.196 0 11.155-9.043 20.201-20.199 20.201-11.152 0-20.198-9.046-20.198-20.201 0-11.16 9.1-20.2 20.2-20.2zm0 4.21c-8.824 0-15.979 7.157-15.979 15.979 0 8.827 7.154 15.981 15.979 15.981s15.982-7.154 15.982-15.981c0-8.82-7.2-15.98-16-15.98z"/>
	<path fill="#000002" d="m1850.6 344.2c10.442-3.808 16.175 12.073 5.78 15.826l-510.61 176.56c-10.509 3.795-16.153-12.08-5.782-15.826l510.6-176.56z"/>
	<path fill="#C7B693" d="m1852 348.16c5.215-1.898 8.076 6.032 2.884 7.906l-510.61 176.56c-5.247 1.896-8.066-6.031-2.884-7.902l510.6-176.57z"/>
	<path fill="#000002" d="m1859 276.03c4.15-0.465 15.258-0.536 18.004 1.973 5.402 4.938-0.126 12.621 1.252 15.162 3.612 6.649 12.083 10.338 11.831 14.488-0.288 4.768-8.123 9.957-9.256 15.241-1.047 4.872 6.254 14.992 1.241 17.311-12.809 5.921-8.147 15.532-15.967 18.992-27.387 12.11-38.361-2.232-69.75 10.068-1.24 0.486-2.514 0.876-3.768 1.318l-16.523-40.063 20.026-34.554c0.559-0.153 1.116-0.302 1.675-0.452 22.109-2.645 7.236-18.518 49.771-25.661 3.9-0.63 9.8 3.31 11.6 6.17z"/>
	<path fill="#F6EACC" d="m1798.9 299.58c14.676-3.985 15.858-14.787 26.492-19.624 8.16-3.714 15.908-5.368 23.584-6.657 5.148 2.486 7.042 4.973 7.457 7.457 6.393-1.625 17.073-0.267 17.755 0.357 3.735 3.408 0.192 9.766 2.523 14.057 3.409 6.276 9.276 10.931 9.199 12.225-0.185 2.989-5.718 8.088-7.042 14.254-1.029 4.795 1.926 14.229 0.647 15.219-9.264 7.189-9.121 15.829-15.083 18.469-26.723 11.809-41.865 0.311-69.439 9.945-4.733-11.486-9.472-22.968-14.205-34.451 5.9-10.41 12-20.83 18-31.25z"/>
	<path fill="#000002" d="m1856.4 280.76c-8.847 2.625-19.617 8.367-27.779 12.58 16.503-14.652 25.404-15.834 30.377-17.311l-2.6 4.73z"/>
	<path fill="#000002" d="m1851 317.5c11.415-2.306 18.582-4.432 26.629-5.141-2 6.09-28.8 6.22-26.6 5.14z"/>
	<path fill="#000002" d="m1840.9 337.91c9.118 0.711 18.231 1.423 27.345 2.134-0.3 4.19-27.5-0.46-27.3-2.13z"/>
	<path fill="#000002" d="m1779.8 291.69c4.973-2.084 17.217-5.992 21.461-3.459 3.882 2.318 4.213 3.635 6.57 7.202-11.59 21.406-13.229 43.771-4.01 66.738 1.479 3.69-2.133 9.97-2.642 10.34l-1.614 0.413c-39.019 9.977-77.207 10.352-115.71-2.941-3.889-1.343-9.069-8.923-9.084-10.698 8.955-17.965 9.642-36.665 20.354-51.99 6.889-9.856 19.343-16.519 25.385-26.782 7.866-13.359 26.413-34.242 42.788-22.732l1.236 1.352c5.09 8.878 10.181 17.757 15.27 26.638 1 1.99 0.2 3.68-0.2 5.92z"/>
	<path fill="#ED1C24" d="m1804.6 297.43c-11.965 22.105-13.508 44.208-4.64 66.313 0.013 1.936-0.449 3.632-1.385 5.096-46.523 11.898-82.273 9.765-113.64-1.066-2.842-2.748-4.528-4.973-5.682-8.523 6.223-20.303 11.651-37.808 20.098-49.89 6.724-9.614 17.565-17.203 23.787-27.771 8.034-13.641 28.771-31.369 41.457-22.455 9.02 7.829 16.307 18.021 15.64 27.282-0.591 3.672-5.212 8.792-5.805 12.462 11.972-6.069 19.39-7.58 24.728-7.022 2.1 1.32 3.9 3.29 5.4 5.57z"/>
	<path fill="#000002" d="m1774.4 298.87c-9.506 5.02-31.154 20.403-43.893 32.205 12.118-16.324 32.493-30.504 49.321-39.391l-5.4 7.18z"/>
	<path fill="#000002" d="m1650.8 332.61c3.195 5.758 6.113 13.761 7.955 22.994-2.856-5.915-7.713-17.571-10.266-21.974l2.3-1.02z"/>
	<path fill="#000002" d="m1648.8 364.06c-3.871-4.454-5.395-7.617-15.511-13.456 5.57 0.719 10.894 2.433 14.672 6.777l0.8 6.68z"/>
	<path fill="#000002" d="m1820.2 406.9c8.012 0.131 19.915 1.102 27.4 4.102-12.686 0.086-23.529 2.262-29.117 2.17l1.7-6.27z"/>
	<path fill="#000002" d="m1328.7 303.53c11.156 0 20.199 9.047 20.199 20.202 0 11.152-9.043 20.196-20.199 20.196-11.152 0-20.198-9.044-20.198-20.196 0-11.15 9.1-20.2 20.2-20.2zm16 20.2c0-20.858-31.961-20.858-31.961 0 0 8.821 7.154 15.979 15.979 15.979 8.8 0 16-7.15 16-15.98z"/>
	<path fill="#000002" d="m1832.4 290.56l-33.463-19.879c-12.891-7.656-26.451-14.478-41.489-16.44-9.741-1.274-19.523-0.509-29.212 0.842-13.813 1.928-27.694 4.898-41.396 7.564-117.64 22.918-225.35 44.416-342.99 67.338-2.984 0.576-5.939-0.353-7.92-2.691-4.163-4.925-1.805-12.602 4.732-13.863l347.19-68.15c14.009-2.735 28.275-5.695 42.438-7.466 10.53-1.316 21.019-1.867 31.557-0.272 16.547 2.509 31.455 10.183 45.687 18.64l40.413 24.006c-4.5 2.21-9.9 5.46-15.5 10.37z"/>
	<path fill="#C7B693" d="m1835.9 287.7l-34.757-20.649c-41.158-24.448-57.447-19.762-115.06-8.55-117.64 22.922-225.35 44.418-342.99 67.338-5.432 1.047-7.039-7.22-1.582-8.271l347.19-68.152-0.002-0.003c59.185-11.548 74.7-14.574 116.72 10.393l38.196 22.69c-2.3 1.41-4.9 3.12-7.6 5.2z"/>
</g>
</svg>
